<svg width="77" height="78" viewBox="0 0 77 78" fill="none" xmlns="http://www.w3.org/2000/svg">
<path d="M38.5 0.71875C30.9287 0.71875 23.5274 2.96391 17.2321 7.1703C10.9368 11.3767 6.03017 17.3554 3.13275 24.3504C0.235336 31.3454 -0.52276 39.0425 0.954331 46.4683C2.43142 53.8941 6.07736 60.7152 11.4311 66.0689C16.7848 71.4227 23.6059 75.0686 31.0317 76.5457C38.4576 78.0228 46.1546 77.2647 53.1496 74.3673C60.1446 71.4698 66.1233 66.5632 70.3297 60.2679C74.5361 53.9726 76.7813 46.5713 76.7813 39C76.7701 28.8506 72.7334 19.1201 65.5566 11.9434C58.3799 4.76667 48.6494 0.729896 38.5 0.71875ZM38.5 74.2188C31.5344 74.2188 24.7252 72.1532 18.9335 68.2833C13.1418 64.4134 8.62776 58.913 5.96213 52.4776C3.29651 46.0422 2.59906 38.9609 3.95799 32.1292C5.31691 25.2974 8.67117 19.022 13.5966 14.0966C18.522 9.17115 24.7974 5.81689 31.6292 4.45797C38.4609 3.09905 45.5423 3.79649 51.9776 6.46212C58.413 9.12774 63.9135 13.6418 67.7833 19.4335C71.6532 25.2252 73.7188 32.0344 73.7188 39C73.7086 48.3375 69.9948 57.2896 63.3922 63.8922C56.7896 70.4948 47.8375 74.2086 38.5 74.2188ZM54.8959 37.9166C55.0382 38.0589 55.1512 38.2277 55.2283 38.4136C55.3053 38.5995 55.345 38.7988 55.345 39C55.345 39.2012 55.3053 39.4005 55.2283 39.5864C55.1512 39.7723 55.0382 39.9411 54.8959 40.0834L42.6459 52.3334C42.3586 52.6207 41.9689 52.7821 41.5625 52.7821C41.1562 52.7821 40.7665 52.6207 40.4792 52.3334C40.1918 52.046 40.0304 51.6563 40.0304 51.25C40.0304 50.8437 40.1918 50.454 40.4792 50.1666L50.1145 40.5312H23.1875C22.7814 40.5312 22.3919 40.3699 22.1048 40.0828C21.8176 39.7956 21.6563 39.4061 21.6563 39C21.6563 38.5939 21.8176 38.2044 22.1048 37.9172C22.3919 37.6301 22.7814 37.4688 23.1875 37.4688H50.1145L40.4792 27.8334C40.1918 27.546 40.0304 27.1563 40.0304 26.75C40.0304 26.3437 40.1918 25.954 40.4792 25.6666C40.7665 25.3793 41.1562 25.2179 41.5625 25.2179C41.9689 25.2179 42.3586 25.3793 42.6459 25.6666L54.8959 37.9166Z" fill="black"/>
</svg>
