<svg width="41" height="32" viewBox="0 0 41 32" fill="none" xmlns="http://www.w3.org/2000/svg">
<path d="M12.6734 0.652629C14.4529 0.611424 16.2408 0.648059 18.0212 0.648104L28.2616 0.647787L33.7349 0.645799C34.8638 0.644352 36.0371 0.578766 37.1579 0.717261C37.8399 0.80148 38.4189 1.00556 38.9553 1.4447C39.5668 1.94485 40.0779 2.74036 40.153 3.5389C40.2032 4.07022 40.1743 4.62492 40.1734 5.15855L40.172 7.91198L40.1716 17.1067L40.1711 24.8141L40.1756 27.0969C40.1765 27.5437 40.2037 28.0137 40.1517 28.4574C40.0802 29.068 39.8075 29.6555 39.4162 30.1273C38.8246 30.8397 37.9711 31.2395 37.0575 31.3177C36.4726 31.3675 35.8756 31.3431 35.2885 31.3431L32.415 31.3422L23.3356 31.3404L15.9733 31.3422C14.846 31.3435 13.2497 31.429 12.1713 31.2983C12.1304 31.2935 12.0896 31.2879 12.0489 31.2816C12.0082 31.2752 11.9676 31.2681 11.9272 31.2603C11.8868 31.2525 11.8465 31.2439 11.8064 31.2345C11.7663 31.2252 11.7263 31.2151 11.6866 31.2042C11.6468 31.1934 11.6073 31.1818 11.5679 31.1694C11.5286 31.157 11.4896 31.1441 11.4507 31.1305C11.4119 31.1169 11.3733 31.1025 11.335 31.0871C11.2967 31.072 11.2587 31.0562 11.2209 31.0396C11.1832 31.0233 11.1458 31.0061 11.1087 30.988C11.0716 30.9702 11.0348 30.9517 10.9984 30.9324C10.962 30.9131 10.9259 30.8932 10.8903 30.8727C10.8546 30.8522 10.8193 30.8309 10.7844 30.8089C10.7495 30.7872 10.715 30.7647 10.6809 30.7415C10.6468 30.7183 10.6132 30.6945 10.58 30.6701C10.5468 30.6456 10.5141 30.6208 10.4818 30.5954C10.4495 30.5698 10.4177 30.5436 10.3864 30.5167C9.69072 29.9201 9.30305 29.0531 9.23552 28.1467C9.18102 27.4153 9.23869 26.6663 9.23484 25.9326C9.23073 25.1547 9.16283 24.336 9.22521 23.5621C9.23602 23.4282 9.24556 23.3143 9.33435 23.2125C9.90529 23.0904 10.5064 23.1324 11.0872 23.1324L13.3325 23.1315L21.9179 23.1338L29.3247 23.1343C30.0965 23.1356 32.7145 23.236 33.3251 23.056C33.4553 22.7421 33.3911 21.0757 33.3988 20.6007C33.4015 20.4553 33.4047 20.3259 33.2807 20.2231C33.1595 20.1227 32.9741 20.0948 32.8221 20.0895C32.1251 20.0652 31.4118 20.1068 30.7117 20.1065L25.3464 20.1062L9.23828 20.1074C9.28319 17.3839 9.23959 14.6524 9.23959 11.928C10.0126 11.8872 10.7929 11.9098 11.5671 11.9101L15.5095 11.9104L27.6101 11.9106L30.9695 11.9117C31.6968 11.9125 32.6163 12.0074 33.3183 11.8287C33.3246 11.8176 33.3323 11.8071 33.3377 11.7954C33.4042 11.6479 33.4241 9.24808 33.3572 9.05703C33.3251 8.96544 33.2568 8.90818 33.165 8.88312C32.7877 8.78 31.9451 8.862 31.519 8.86263L15.3477 8.8648C14.6444 8.86476 9.67009 8.93785 9.31517 8.8141C9.23887 8.73535 9.23819 8.71984 9.22869 8.60984C9.16414 7.86173 9.22503 7.04886 9.2253 6.29604C9.22584 4.66011 8.97296 3.07507 10.1314 1.74829C10.7652 1.02243 11.7396 0.712197 12.6734 0.652629Z" fill="#1B1B1B"/>
<path d="M1.6042 11.884C2.41875 11.8197 3.27754 11.8726 4.0963 11.8721C4.8914 11.8715 5.76276 11.7984 6.54949 11.9068C6.81277 11.9431 7.09664 12.0149 7.31759 12.1663C7.64306 12.3894 7.8898 12.7815 7.95325 13.171C8.07411 13.9127 7.99609 15.1227 7.99609 15.9027C7.99609 16.7606 8.07153 17.8538 7.96035 18.6896C7.92091 18.9863 7.85542 19.2827 7.67201 19.5259C7.36499 19.933 6.91979 20.0692 6.43945 20.142C5.45533 20.1651 4.46668 20.1475 3.48211 20.1488C2.85183 20.1496 2.17636 20.1978 1.55169 20.1237C1.25335 20.0883 0.916069 20.0125 0.667982 19.8388C0.326177 19.5995 0.131235 19.1733 0.061264 18.7723C-0.0501831 18.1335 0.0247636 16.6356 0.0248541 15.9309C0.0248993 15.2144 -0.047559 13.8824 0.0547517 13.2213C0.095685 12.9564 0.235311 12.6497 0.398863 12.4383C0.688969 12.0633 1.15633 11.9379 1.6042 11.884Z" fill="#FEC845"/>
</svg>
