<svg width="21" height="20" viewBox="0 0 21 20" fill="none" xmlns="http://www.w3.org/2000/svg">
<path d="M10.1848 1.875C8.57784 1.875 7.00696 2.35152 5.67081 3.24431C4.33466 4.1371 3.29326 5.40605 2.6783 6.8907C2.06333 8.37535 1.90243 10.009 2.21594 11.5851C2.52944 13.1612 3.30327 14.6089 4.43958 15.7452C5.57588 16.8815 7.02361 17.6554 8.59971 17.9689C10.1758 18.2824 11.8095 18.1215 13.2941 17.5065C14.7788 16.8916 16.0477 15.8502 16.9405 14.514C17.8333 13.1779 18.3098 11.607 18.3098 10C18.3075 7.84581 17.4508 5.78051 15.9275 4.25727C14.4043 2.73403 12.339 1.87727 10.1848 1.875ZM10.1848 16.875C8.82507 16.875 7.49586 16.4718 6.36527 15.7164C5.23468 14.9609 4.3535 13.8872 3.83315 12.6309C3.31279 11.3747 3.17665 9.99237 3.44192 8.65875C3.70719 7.32513 4.36197 6.10013 5.32346 5.13864C6.28495 4.17716 7.50995 3.52237 8.84357 3.2571C10.1772 2.99183 11.5595 3.12798 12.8158 3.64833C14.072 4.16868 15.1457 5.04987 15.9012 6.18045C16.6566 7.31104 17.0598 8.64025 17.0598 10C17.0578 11.8227 16.3328 13.5702 15.0439 14.8591C13.755 16.1479 12.0075 16.8729 10.1848 16.875ZM13.3098 11.5625C13.3098 12.1427 13.0794 12.6991 12.6691 13.1093C12.2589 13.5195 11.7025 13.75 11.1223 13.75H10.8098V14.375C10.8098 14.5408 10.744 14.6997 10.6268 14.8169C10.5096 14.9342 10.3506 15 10.1848 15C10.0191 15 9.86009 14.9342 9.74288 14.8169C9.62567 14.6997 9.55982 14.5408 9.55982 14.375V13.75H8.30982C8.14406 13.75 7.98509 13.6842 7.86788 13.5669C7.75067 13.4497 7.68482 13.2908 7.68482 13.125C7.68482 12.9592 7.75067 12.8003 7.86788 12.6831C7.98509 12.5658 8.14406 12.5 8.30982 12.5H11.1223C11.371 12.5 11.6094 12.4012 11.7852 12.2254C11.961 12.0496 12.0598 11.8111 12.0598 11.5625C12.0598 11.3139 11.961 11.0754 11.7852 10.8996C11.6094 10.7238 11.371 10.625 11.1223 10.625H9.24732C8.66716 10.625 8.11076 10.3945 7.70052 9.9843C7.29029 9.57406 7.05982 9.01766 7.05982 8.4375C7.05982 7.85734 7.29029 7.30094 7.70052 6.8907C8.11076 6.48047 8.66716 6.25 9.24732 6.25H9.55982V5.625C9.55982 5.45924 9.62567 5.30027 9.74288 5.18306C9.86009 5.06585 10.0191 5 10.1848 5C10.3506 5 10.5096 5.06585 10.6268 5.18306C10.744 5.30027 10.8098 5.45924 10.8098 5.625V6.25H12.0598C12.2256 6.25 12.3846 6.31585 12.5018 6.43306C12.619 6.55027 12.6848 6.70924 12.6848 6.875C12.6848 7.04076 12.619 7.19973 12.5018 7.31694C12.3846 7.43415 12.2256 7.5 12.0598 7.5H9.24732C8.99868 7.5 8.76022 7.59877 8.58441 7.77459C8.40859 7.9504 8.30982 8.18886 8.30982 8.4375C8.30982 8.68614 8.40859 8.9246 8.58441 9.10041C8.76022 9.27623 8.99868 9.375 9.24732 9.375H11.1223C11.7025 9.375 12.2589 9.60547 12.6691 10.0157C13.0794 10.4259 13.3098 10.9823 13.3098 11.5625Z" fill="black"/>
</svg>
