<svg width="200" height="153" viewBox="0 0 200 153" fill="none" xmlns="http://www.w3.org/2000/svg">
<path d="M62.7821 0.116915C71.5977 -0.0872075 80.4547 0.0942759 89.2745 0.0945L140.004 0.0929272L167.118 0.0830807C172.71 0.0759107 178.522 -0.248992 184.075 0.437092C187.454 0.854298 190.322 1.86528 192.979 4.04071C196.008 6.51841 198.54 10.4592 198.912 14.4151C199.161 17.0472 199.018 19.7951 199.013 22.4386L199.006 36.0787L199.004 81.6282L199.002 119.809L199.024 131.118C199.029 133.332 199.163 135.66 198.906 137.858C198.552 140.882 197.2 143.793 195.262 146.13C192.332 149.659 188.103 151.64 183.577 152.027C180.68 152.274 177.723 152.153 174.814 152.153L160.579 152.148L115.601 152.139L79.1293 152.148C73.5448 152.155 65.6369 152.579 60.2948 151.931C60.0922 151.907 59.8901 151.88 59.6885 151.848C59.4868 151.817 59.2858 151.782 59.0855 151.743C58.8853 151.704 58.6859 151.661 58.487 151.615C58.2884 151.569 58.0906 151.519 57.8937 151.465C57.6967 151.411 57.5008 151.354 57.306 151.292C57.1112 151.231 56.9176 151.167 56.7252 151.1C56.5328 151.033 56.3417 150.961 56.1518 150.885C55.9621 150.81 55.7738 150.732 55.5867 150.649C55.3999 150.569 55.2146 150.484 55.0308 150.394C54.847 150.306 54.6649 150.214 54.4846 150.118C54.3041 150.023 54.1256 149.924 53.9488 149.823C53.772 149.721 53.5971 149.616 53.4243 149.507C53.2513 149.399 53.0804 149.288 52.9116 149.173C52.7429 149.058 52.5762 148.94 52.4118 148.819C52.2473 148.698 52.0852 148.575 51.9253 148.449C51.7653 148.322 51.6078 148.192 51.4528 148.059C48.0064 145.104 46.086 140.809 45.7515 136.318C45.4815 132.695 45.7672 128.985 45.7481 125.35C45.7277 121.496 45.3914 117.441 45.7004 113.607C45.7539 112.944 45.8012 112.379 46.241 111.875C49.0694 111.27 52.0474 111.479 54.9246 111.479L66.0474 111.474L108.578 111.485L145.271 111.488C149.094 111.494 162.063 111.992 165.088 111.1C165.733 109.545 165.415 101.29 165.453 98.9366C165.466 98.2165 165.482 97.5752 164.868 97.0659C164.268 96.5687 163.349 96.4305 162.596 96.4043C159.143 96.2842 155.61 96.4899 152.141 96.4887L125.562 96.4869L45.7651 96.493C45.9876 83.001 45.7716 69.4696 45.7716 55.9733C49.6011 55.7714 53.4664 55.8832 57.3017 55.8848L76.8318 55.8862L136.776 55.8873L153.418 55.8926C157.021 55.8969 161.577 56.3668 165.054 55.4817C165.085 55.4266 165.123 55.3746 165.15 55.3164C165.48 54.5859 165.578 42.6975 165.247 41.7511C165.088 41.2974 164.749 41.0137 164.294 40.8896C162.426 40.3787 158.251 40.7849 156.141 40.7881L76.0303 40.7988C72.5461 40.7986 47.9043 41.1607 46.1461 40.5476C45.7681 40.1576 45.7647 40.0807 45.7176 39.5358C45.3979 35.8298 45.6995 31.8029 45.7008 28.0736C45.7035 19.9694 44.4508 12.1173 50.1895 5.54463C53.3291 1.94886 58.1565 0.412006 62.7821 0.116915Z" fill="#1B1B1B"/>
<path d="M7.94698 55.7549C11.9821 55.4363 16.2364 55.6987 20.2924 55.6958C24.2313 55.6929 28.5478 55.3308 32.4452 55.8679C33.7495 56.0478 35.1557 56.4034 36.2503 57.1535C37.8626 58.2588 39.0849 60.2013 39.3993 62.1307C39.998 65.8049 39.6114 71.7993 39.6114 75.663C39.6114 79.9128 39.9852 85.3287 39.4344 89.4687C39.239 90.9388 38.9146 92.4068 38.006 93.6116C36.4851 95.6284 34.2796 96.3033 31.9001 96.6638C27.0249 96.7781 22.1273 96.6914 17.2499 96.6974C14.1276 96.7015 10.7814 96.9403 7.68685 96.5733C6.20892 96.3979 4.53807 96.0223 3.30908 95.1619C1.61583 93.9766 0.65012 91.8653 0.303493 89.8785C-0.2486 86.7143 0.122675 79.294 0.123123 75.8026C0.123348 72.2534 -0.2356 65.655 0.271232 62.3796C0.47401 61.0673 1.16569 59.5481 1.97591 58.5008C3.41305 56.6431 5.7283 56.0218 7.94698 55.7549Z" fill="white"/>
</svg>
