<svg width="17" height="14" viewBox="0 0 17 14" fill="none" xmlns="http://www.w3.org/2000/svg">
<path d="M15.0598 0.125H1.30981C0.978294 0.125 0.660351 0.256696 0.425931 0.491116C0.19151 0.725537 0.0598145 1.04348 0.0598145 1.375V12.625C0.0598145 12.9565 0.19151 13.2745 0.425931 13.5089C0.660351 13.7433 0.978294 13.875 1.30981 13.875H15.0598C15.3913 13.875 15.7093 13.7433 15.9437 13.5089C16.1781 13.2745 16.3098 12.9565 16.3098 12.625V1.375C16.3098 1.04348 16.1781 0.725537 15.9437 0.491116C15.7093 0.256696 15.3913 0.125 15.0598 0.125ZM15.0598 1.375V9.40234L13.0231 7.36641C12.907 7.2503 12.7692 7.1582 12.6175 7.09537C12.4659 7.03253 12.3033 7.00019 12.1391 7.00019C11.9749 7.00019 11.8124 7.03253 11.6607 7.09537C11.509 7.1582 11.3712 7.2503 11.2551 7.36641L9.69263 8.92891L6.25513 5.49141C6.02073 5.25716 5.70291 5.12558 5.37153 5.12558C5.04015 5.12558 4.72234 5.25716 4.48794 5.49141L1.30981 8.66953V1.375H15.0598ZM1.30981 10.4375L5.37231 6.375L11.6223 12.625H1.30981V10.4375ZM15.0598 12.625H13.3903L10.5778 9.8125L12.1403 8.25L15.0598 11.1703V12.625ZM9.43481 4.8125C9.43481 4.62708 9.4898 4.44582 9.59281 4.29165C9.69583 4.13748 9.84224 4.01732 10.0135 3.94636C10.1849 3.87541 10.3734 3.85684 10.5552 3.89301C10.7371 3.92919 10.9041 4.01848 11.0352 4.14959C11.1663 4.2807 11.2556 4.44775 11.2918 4.6296C11.328 4.81146 11.3094 4.99996 11.2385 5.17127C11.1675 5.34257 11.0473 5.48899 10.8932 5.592C10.739 5.69502 10.5577 5.75 10.3723 5.75C10.1237 5.75 9.88522 5.65123 9.7094 5.47541C9.53359 5.2996 9.43481 5.06114 9.43481 4.8125Z" fill="black"/>
</svg>
