<svg width="16" height="16" viewBox="0 0 16 16" fill="none" xmlns="http://www.w3.org/2000/svg">
<path d="M14.4348 0.5H4.43481C4.10329 0.5 3.78535 0.631696 3.55093 0.866116C3.31651 1.10054 3.18481 1.41848 3.18481 1.75V3H1.93481C1.60329 3 1.28535 3.1317 1.05093 3.36612C0.81651 3.60054 0.684814 3.91848 0.684814 4.25V14.25C0.684814 14.5815 0.81651 14.8995 1.05093 15.1339C1.28535 15.3683 1.60329 15.5 1.93481 15.5H11.9348C12.2663 15.5 12.5843 15.3683 12.8187 15.1339C13.0531 14.8995 13.1848 14.5815 13.1848 14.25V13H14.4348C14.7663 13 15.0843 12.8683 15.3187 12.6339C15.5531 12.3995 15.6848 12.0815 15.6848 11.75V1.75C15.6848 1.41848 15.5531 1.10054 15.3187 0.866116C15.0843 0.631696 14.7663 0.5 14.4348 0.5ZM4.43481 1.75H14.4348V7.17031L13.1301 5.86562C12.8957 5.63138 12.5779 5.4998 12.2465 5.4998C11.9152 5.4998 11.5973 5.63138 11.3629 5.86562L5.47935 11.75H4.43481V1.75ZM11.9348 14.25H1.93481V4.25H3.18481V11.75C3.18481 12.0815 3.31651 12.3995 3.55093 12.6339C3.78535 12.8683 4.10329 13 4.43481 13H11.9348V14.25ZM14.4348 11.75H7.24731L12.2473 6.75L14.4348 8.9375V11.75ZM7.55981 6.75C7.93065 6.75 8.29317 6.64003 8.60151 6.43401C8.90985 6.22798 9.15017 5.93514 9.29209 5.59253C9.434 5.24992 9.47113 4.87292 9.39879 4.50921C9.32644 4.14549 9.14786 3.8114 8.88564 3.54917C8.62342 3.28695 8.28932 3.10837 7.92561 3.03603C7.56189 2.96368 7.18489 3.00081 6.84228 3.14273C6.49967 3.28464 6.20684 3.52496 6.00081 3.83331C5.79478 4.14165 5.68481 4.50416 5.68481 4.875C5.68481 5.37228 5.88236 5.84919 6.23399 6.20083C6.58562 6.55246 7.06253 6.75 7.55981 6.75ZM7.55981 4.25C7.68343 4.25 7.80427 4.28666 7.90705 4.35533C8.00983 4.42401 8.08993 4.52162 8.13724 4.63582C8.18454 4.75003 8.19692 4.87569 8.17281 4.99693C8.14869 5.11817 8.08916 5.22953 8.00176 5.31694C7.91435 5.40435 7.80298 5.46388 7.68175 5.48799C7.56051 5.51211 7.43484 5.49973 7.32064 5.45243C7.20643 5.40512 7.10882 5.32501 7.04015 5.22223C6.97147 5.11945 6.93481 4.99861 6.93481 4.875C6.93481 4.70924 7.00066 4.55027 7.11787 4.43306C7.23508 4.31585 7.39405 4.25 7.55981 4.25Z" fill="black"/>
</svg>
