<svg width="25" height="25" viewBox="0 0 25 25" fill="none" xmlns="http://www.w3.org/2000/svg">
<path d="M19.4272 5.62437C18.53 4.71817 17.4629 3.99783 16.2869 3.5046C15.111 3.01137 13.8493 2.75494 12.5741 2.75H12.5C9.91414 2.75 7.43419 3.77723 5.60571 5.60571C3.77723 7.43419 2.75 9.91414 2.75 12.5V17.75C2.75 18.3467 2.98705 18.919 3.40901 19.341C3.83097 19.7629 4.40326 20 5 20H6.5C7.09674 20 7.66903 19.7629 8.09099 19.341C8.51295 18.919 8.75 18.3467 8.75 17.75V14C8.75 13.4033 8.51295 12.831 8.09099 12.409C7.66903 11.9871 7.09674 11.75 6.5 11.75H4.28375C4.42839 10.1862 5.01578 8.696 5.97709 7.4541C6.93839 6.21219 8.23377 5.27003 9.71141 4.73803C11.189 4.20603 12.7877 4.10624 14.32 4.45035C15.8524 4.79446 17.2548 5.56822 18.3631 6.68094C19.7177 8.04247 20.5509 9.83662 20.7172 11.75H18.5C17.9033 11.75 17.331 11.9871 16.909 12.409C16.4871 12.831 16.25 13.4033 16.25 14V17.75C16.25 18.3467 16.4871 18.919 16.909 19.341C17.331 19.7629 17.9033 20 18.5 20H20.75C20.75 20.5967 20.5129 21.169 20.091 21.591C19.669 22.0129 19.0967 22.25 18.5 22.25H13.25C13.0511 22.25 12.8603 22.329 12.7197 22.4697C12.579 22.6103 12.5 22.8011 12.5 23C12.5 23.1989 12.579 23.3897 12.7197 23.5303C12.8603 23.671 13.0511 23.75 13.25 23.75H18.5C19.4946 23.75 20.4484 23.3549 21.1517 22.6516C21.8549 21.9484 22.25 20.9946 22.25 20V12.5C22.2549 11.2246 22.0081 9.96077 21.5237 8.78093C21.0393 7.60108 20.3268 6.52841 19.4272 5.62437ZM6.5 13.25C6.69891 13.25 6.88968 13.329 7.03033 13.4697C7.17098 13.6103 7.25 13.8011 7.25 14V17.75C7.25 17.9489 7.17098 18.1397 7.03033 18.2803C6.88968 18.421 6.69891 18.5 6.5 18.5H5C4.80109 18.5 4.61032 18.421 4.46967 18.2803C4.32902 18.1397 4.25 17.9489 4.25 17.75V13.25H6.5ZM18.5 18.5C18.3011 18.5 18.1103 18.421 17.9697 18.2803C17.829 18.1397 17.75 17.9489 17.75 17.75V14C17.75 13.8011 17.829 13.6103 17.9697 13.4697C18.1103 13.329 18.3011 13.25 18.5 13.25H20.75V18.5H18.5Z" fill="black"/>
</svg>
