<svg width="37" height="43" viewBox="0 0 37 43" fill="none" xmlns="http://www.w3.org/2000/svg">
<rect x="0.5" y="6.5" width="36" height="36" rx="18" fill="#EDEDED"/>
<path d="M27.875 4.25H9.125C8.62772 4.25 8.15081 4.44754 7.79917 4.79917C7.44754 5.15081 7.25 5.62772 7.25 6.125V24.875C7.25 25.3723 7.44754 25.8492 7.79917 26.2008C8.15081 26.5525 8.62772 26.75 9.125 26.75H27.875C28.3723 26.75 28.8492 26.5525 29.2008 26.2008C29.5525 25.8492 29.75 25.3723 29.75 24.875V6.125C29.75 5.62772 29.5525 5.15081 29.2008 4.79917C28.8492 4.44754 28.3723 4.25 27.875 4.25ZM9.125 6.125H27.875V15.193L24.9816 12.2984C24.63 11.9471 24.1533 11.7497 23.6562 11.7497C23.1592 11.7497 22.6825 11.9471 22.3309 12.2984L9.7543 24.875H9.125V6.125ZM27.875 24.875H12.4062L23.6562 13.625L27.875 17.8438V24.875ZM14.75 14.5625C15.3063 14.5625 15.85 14.3975 16.3125 14.0885C16.7751 13.7795 17.1355 13.3402 17.3484 12.8263C17.5613 12.3124 17.617 11.7469 17.5085 11.2013C17.3999 10.6557 17.1321 10.1546 16.7387 9.76126C16.3454 9.36793 15.8443 9.10006 15.2987 8.99154C14.7531 8.88302 14.1876 8.93872 13.6737 9.15159C13.1598 9.36446 12.7205 9.72495 12.4115 10.1875C12.1025 10.65 11.9375 11.1937 11.9375 11.75C11.9375 12.4959 12.2338 13.2113 12.7613 13.7387C13.2887 14.2662 14.0041 14.5625 14.75 14.5625ZM14.75 10.8125C14.9354 10.8125 15.1167 10.8675 15.2708 10.9705C15.425 11.0735 15.5452 11.2199 15.6161 11.3912C15.6871 11.5625 15.7057 11.751 15.6695 11.9329C15.6333 12.1148 15.544 12.2818 15.4129 12.4129C15.2818 12.544 15.1148 12.6333 14.9329 12.6695C14.751 12.7057 14.5625 12.6871 14.3912 12.6161C14.2199 12.5452 14.0735 12.425 13.9705 12.2708C13.8675 12.1167 13.8125 11.9354 13.8125 11.75C13.8125 11.5014 13.9113 11.2629 14.0871 11.0871C14.2629 10.9113 14.5014 10.8125 14.75 10.8125Z" fill="black"/>
<path fill-rule="evenodd" clip-rule="evenodd" d="M9.125 6.125H27.875V15.193L24.9816 12.2984C24.63 11.9471 24.1533 11.7497 23.6562 11.7497C23.1592 11.7497 22.6825 11.9471 22.3309 12.2984L9.7543 24.875H9.125V6.125ZM16.3125 14.0885C15.85 14.3975 15.3063 14.5625 14.75 14.5625C14.0041 14.5625 13.2887 14.2662 12.7613 13.7387C12.2338 13.2113 11.9375 12.4959 11.9375 11.75C11.9375 11.1937 12.1025 10.65 12.4115 10.1875C12.7205 9.72495 13.1598 9.36446 13.6737 9.15159C14.1876 8.93872 14.7531 8.88302 15.2987 8.99154C15.8443 9.10006 16.3454 9.36793 16.7387 9.76126C17.1321 10.1546 17.3999 10.6557 17.5085 11.2013C17.617 11.7469 17.5613 12.3124 17.3484 12.8263C17.1355 13.3402 16.7751 13.7795 16.3125 14.0885Z" fill="white"/>
<path d="M27.875 24.875H12.4062L23.6562 13.625L27.875 17.8438V24.875Z" fill="white"/>
<path d="M14.75 10.8125C14.9354 10.8125 15.1167 10.8675 15.2708 10.9705C15.425 11.0735 15.5452 11.2199 15.6161 11.3912C15.6871 11.5625 15.7057 11.751 15.6695 11.9329C15.6333 12.1148 15.544 12.2818 15.4129 12.4129C15.2818 12.544 15.1148 12.6333 14.9329 12.6695C14.751 12.7057 14.5625 12.6871 14.3912 12.6161C14.2199 12.5452 14.0735 12.425 13.9705 12.2708C13.8675 12.1167 13.8125 11.9354 13.8125 11.75C13.8125 11.5014 13.9113 11.2629 14.0871 11.0871C14.2629 10.9113 14.5014 10.8125 14.75 10.8125Z" fill="white"/>
</svg>
