<svg width="22" height="22" viewBox="0 0 22 22" fill="none" xmlns="http://www.w3.org/2000/svg">
<path d="M15.8125 6.1875C15.8126 5.26501 15.5476 4.36194 15.0489 3.58581C14.5503 2.80969 13.8392 2.19323 13.0001 1.80984C12.1611 1.42644 11.2295 1.29228 10.3164 1.42332C9.40326 1.55435 8.54703 1.94507 7.84966 2.54895C7.1523 3.15282 6.64319 3.9444 6.38296 4.82942C6.12272 5.71444 6.12234 6.65561 6.38185 7.54084C6.64136 8.42607 7.14982 9.21807 7.84669 9.82251C8.54356 10.427 9.39948 10.8184 10.3125 10.9502V19.9375C10.3125 20.1198 10.3849 20.2947 10.5139 20.4236C10.6428 20.5526 10.8177 20.625 11 20.625C11.1823 20.625 11.3572 20.5526 11.4861 20.4236C11.6151 20.2947 11.6875 20.1198 11.6875 19.9375V10.9502C12.8321 10.7833 13.8786 10.2104 14.6359 9.33609C15.3932 8.46173 15.8108 7.34421 15.8125 6.1875ZM11 9.625C10.3201 9.625 9.65552 9.42339 9.09023 9.04567C8.52493 8.66796 8.08434 8.13109 7.82416 7.50297C7.56399 6.87485 7.49591 6.18368 7.62855 5.51688C7.76119 4.85007 8.08858 4.23756 8.56932 3.75682C9.05006 3.27608 9.66257 2.94869 10.3294 2.81605C10.9962 2.68341 11.6874 2.75149 12.3155 3.01166C12.9436 3.27184 13.4805 3.71243 13.8582 4.27773C14.2359 4.84302 14.4375 5.50763 14.4375 6.1875C14.4375 6.63892 14.3486 7.08592 14.1758 7.50297C14.0031 7.92003 13.7499 8.29898 13.4307 8.61818C13.1115 8.93738 12.7325 9.19058 12.3155 9.36333C11.8984 9.53609 11.4514 9.625 11 9.625Z" fill="#9B7824"/>
</svg>
