<svg width="21" height="20" viewBox="0 0 21 20" fill="none" xmlns="http://www.w3.org/2000/svg">
<path d="M10.1848 3.125C8.70146 3.125 7.25141 3.56487 6.01804 4.38898C4.78467 5.21309 3.82338 6.38443 3.25572 7.75487C2.68806 9.12532 2.53954 10.6333 2.82893 12.0882C3.11832 13.543 3.83262 14.8794 4.88152 15.9283C5.93041 16.9772 7.26678 17.6915 8.72164 17.9809C10.1765 18.2703 11.6845 18.1218 13.0549 17.5541C14.4254 16.9864 15.5967 16.0251 16.4208 14.7918C17.245 13.5584 17.6848 12.1084 17.6848 10.625C17.6825 8.63657 16.8916 6.73024 15.4856 5.32421C14.0796 3.91818 12.1732 3.12727 10.1848 3.125ZM10.1848 16.875C8.94868 16.875 7.74031 16.5084 6.7125 15.8217C5.6847 15.1349 4.88362 14.1588 4.41057 13.0168C3.93752 11.8747 3.81375 10.6181 4.05491 9.40569C4.29607 8.19331 4.89132 7.07966 5.7654 6.20558C6.63948 5.3315 7.75312 4.73625 8.9655 4.49509C10.1779 4.25393 11.4346 4.37771 12.5766 4.85075C13.7186 5.3238 14.6947 6.12488 15.3815 7.15269C16.0683 8.18049 16.4348 9.38887 16.4348 10.625C16.433 12.282 15.7739 13.8707 14.6022 15.0424C13.4305 16.2141 11.8419 16.8731 10.1848 16.875ZM13.752 7.05781C13.8101 7.11586 13.8562 7.18479 13.8877 7.26066C13.9191 7.33654 13.9353 7.41787 13.9353 7.5C13.9353 7.58214 13.9191 7.66346 13.8877 7.73934C13.8562 7.81521 13.8101 7.88414 13.752 7.94219L10.627 11.0672C10.5689 11.1253 10.5 11.1713 10.4241 11.2027C10.3483 11.2342 10.2669 11.2503 10.1848 11.2503C10.1027 11.2503 10.0214 11.2342 9.94551 11.2027C9.86964 11.1713 9.8007 11.1253 9.74263 11.0672C9.68456 11.0091 9.6385 10.9402 9.60707 10.8643C9.57565 10.7884 9.55947 10.7071 9.55947 10.625C9.55947 10.5429 9.57565 10.4616 9.60707 10.3857C9.6385 10.3098 9.68456 10.2409 9.74263 10.1828L12.8676 7.05781C12.9257 6.9997 12.9946 6.9536 13.0705 6.92215C13.1464 6.8907 13.2277 6.87451 13.3098 6.87451C13.392 6.87451 13.4733 6.8907 13.5492 6.92215C13.625 6.9536 13.694 6.9997 13.752 7.05781ZM7.68482 1.25C7.68482 1.08424 7.75067 0.925269 7.86788 0.808058C7.98509 0.690848 8.14406 0.625 8.30982 0.625H12.0598C12.2256 0.625 12.3846 0.690848 12.5018 0.808058C12.619 0.925269 12.6848 1.08424 12.6848 1.25C12.6848 1.41576 12.619 1.57473 12.5018 1.69194C12.3846 1.80915 12.2256 1.875 12.0598 1.875H8.30982C8.14406 1.875 7.98509 1.80915 7.86788 1.69194C7.75067 1.57473 7.68482 1.41576 7.68482 1.25Z" fill="black"/>
</svg>
